<svg width="28" height="28" viewBox="0 0 28 28" fill="none" xmlns="http://www.w3.org/2000/svg">
<path d="M13.8667 0.132812C8.13294 0.132812 3.19605 3.6212 1.08958 8.59948C1.03204 8.72897 1.00087 8.86862 0.997899 9.01029C0.994924 9.15195 1.0202 9.29279 1.07226 9.42458C1.12431 9.55637 1.2021 9.67647 1.30108 9.77786C1.40006 9.87926 1.51825 9.95992 1.64875 10.0151C1.77924 10.0703 1.91943 10.099 2.06113 10.0995C2.20282 10.0999 2.34319 10.0721 2.47402 10.0177C2.60486 9.96329 2.72355 9.88336 2.82316 9.78259C2.92276 9.68181 3.0013 9.56219 3.05417 9.43073C4.83464 5.22288 8.99772 2.26615 13.8667 2.26615C16.7392 2.26615 19.3582 3.29247 21.3979 5.00156C21.5053 5.09161 21.6294 5.15963 21.763 5.20173C21.8967 5.24382 22.0373 5.25918 22.177 5.24691C22.3166 5.23464 22.4524 5.19499 22.5766 5.13022C22.7009 5.06546 22.8112 4.97684 22.9012 4.86944C22.9913 4.76204 23.0593 4.63796 23.1013 4.50428C23.1434 4.3706 23.1587 4.22995 23.1464 4.09035C23.1341 3.95075 23.0944 3.81494 23.0296 3.69068C22.9648 3.56642 22.8762 3.45614 22.7688 3.36615C20.3605 1.3483 17.249 0.132812 13.8667 0.132812ZM13.8667 4.39948C12.7476 4.39948 11.6686 4.5909 10.6667 4.94531C10.5345 4.99208 10.4128 5.06442 10.3086 5.15821C10.2044 5.252 10.1197 5.36539 10.0593 5.49192C9.99897 5.61845 9.96411 5.75563 9.95675 5.89564C9.9494 6.03564 9.9697 6.17572 10.0165 6.30788C10.0633 6.44003 10.1356 6.56168 10.2294 6.66587C10.3233 6.77006 10.4367 6.85475 10.5632 6.9151C10.6897 6.97546 10.8269 7.01029 10.9669 7.01762C11.1069 7.02495 11.247 7.00463 11.3792 6.95781C12.1564 6.68289 12.991 6.53281 13.8667 6.53281C18.0027 6.53281 21.3333 9.8635 21.3333 13.9995C21.3333 17.1474 20.2792 24.3141 20.2792 24.3141C20.2524 24.4551 20.2544 24.6 20.285 24.7403C20.3156 24.8805 20.3742 25.0131 20.4573 25.1302C20.5403 25.2472 20.6462 25.3463 20.7684 25.4215C20.8907 25.4967 21.0269 25.5464 21.1688 25.5677C21.3108 25.5891 21.4555 25.5815 21.5945 25.5456C21.7334 25.5096 21.8637 25.446 21.9775 25.3585C22.0913 25.271 22.1862 25.1615 22.2567 25.0364C22.3271 24.9114 22.3716 24.7734 22.3875 24.6307C22.3875 24.6307 23.4667 17.5972 23.4667 13.9995C23.4667 8.7104 19.1558 4.39948 13.8667 4.39948ZM25.0708 6.7724C24.886 6.77555 24.7051 6.8267 24.5459 6.92084C24.3868 7.01497 24.2548 7.14885 24.163 7.30936C24.0712 7.46986 24.0227 7.65146 24.0223 7.83636C24.0218 8.02126 24.0694 8.20311 24.1604 8.36406C25.0776 10.0371 25.6 11.953 25.6 13.9995C25.6 15.1688 25.428 16.2933 25.1083 17.3578C25.0621 17.4935 25.0437 17.6371 25.0542 17.78C25.0647 17.9229 25.1039 18.0623 25.1694 18.1898C25.235 18.3172 25.3255 18.4302 25.4357 18.5219C25.5459 18.6135 25.6734 18.6821 25.8106 18.7234C25.9478 18.7647 26.092 18.7779 26.2345 18.7623C26.3769 18.7467 26.5148 18.7025 26.6398 18.6324C26.7648 18.5623 26.8744 18.4677 26.9621 18.3543C27.0498 18.2409 27.1137 18.111 27.15 17.9724C27.528 16.7137 27.7333 15.3795 27.7333 13.9995C27.7333 11.5894 27.1152 9.31621 26.0313 7.33906C25.939 7.16521 25.8005 7.02026 25.631 6.92025C25.4615 6.82024 25.2676 6.76907 25.0708 6.7724ZM7.09167 7.67448C6.93672 7.68268 6.78542 7.72458 6.64833 7.79726C6.51124 7.86995 6.39165 7.97166 6.29792 8.09531C5.02657 9.72287 4.26667 11.7785 4.26667 13.9995C4.26667 19.0168 3.43542 22.2745 3.43542 22.2745C3.39663 22.4115 3.38569 22.555 3.40322 22.6963C3.42076 22.8377 3.46642 22.9741 3.53752 23.0975C3.60862 23.2209 3.70371 23.3288 3.81719 23.4149C3.93067 23.501 4.06023 23.5635 4.19825 23.5986C4.33626 23.6339 4.47992 23.6411 4.62077 23.6198C4.76161 23.5986 4.89678 23.5494 5.0183 23.4751C5.13982 23.4008 5.24523 23.303 5.32832 23.1873C5.41141 23.0716 5.47049 22.9404 5.50208 22.8016C5.50208 22.8016 6.4 19.2563 6.4 13.9995C6.4 12.2631 6.98918 10.6752 7.97917 9.40781C8.10808 9.24731 8.1878 9.05293 8.20871 8.84813C8.22961 8.64333 8.19081 8.43685 8.09699 8.25361C8.00317 8.07037 7.85833 7.91819 7.67994 7.81543C7.50156 7.71267 7.29725 7.66371 7.09167 7.67448ZM13.8667 8.66615C10.9339 8.66615 8.53333 11.0667 8.53333 13.9995C8.53333 21.4856 7.50208 25.3995 7.50208 25.3995C7.46033 25.5369 7.44675 25.6813 7.46215 25.8241C7.47756 25.9668 7.52163 26.105 7.59173 26.2304C7.66183 26.3557 7.75651 26.4656 7.8701 26.5535C7.98369 26.6413 8.11385 26.7053 8.25277 26.7417C8.3917 26.778 8.53654 26.7859 8.6786 26.765C8.82066 26.744 8.95703 26.6946 9.07952 26.6196C9.20202 26.5447 9.30812 26.4457 9.39147 26.3288C9.47482 26.2119 9.5337 26.0793 9.56458 25.9391C9.56458 25.9391 10.6667 21.6856 10.6667 13.9995C10.6667 12.2198 12.087 10.7995 13.8667 10.7995C15.6464 10.7995 17.0667 12.2198 17.0667 13.9995C17.0667 15.2771 17.0124 16.6106 16.9292 17.9078C16.919 18.0483 16.9368 18.1894 16.9815 18.323C17.0262 18.4566 17.0969 18.58 17.1895 18.6861C17.2821 18.7922 17.3948 18.879 17.5212 18.9413C17.6475 19.0036 17.7849 19.0403 17.9255 19.0492C18.066 19.0582 18.207 19.0392 18.3402 18.9934C18.4734 18.9475 18.5962 18.8758 18.7015 18.7823C18.8068 18.6887 18.8926 18.5753 18.9538 18.4484C19.0151 18.3216 19.0506 18.1839 19.0583 18.0432C19.1437 16.7122 19.2 15.3374 19.2 13.9995C19.2 11.0667 16.7995 8.66615 13.8667 8.66615ZM1.04583 12.0536C0.781861 12.0662 0.531942 12.1763 0.344498 12.3626C0.157054 12.5489 0.0454291 12.7981 0.03125 13.062C0.010433 13.3719 0 13.6848 0 13.9995C0 15.1672 0.14613 16.3004 0.41875 17.3828C0.451217 17.5205 0.510735 17.6503 0.593842 17.7648C0.676949 17.8792 0.781986 17.976 0.902841 18.0495C1.0237 18.1229 1.15796 18.1717 1.29781 18.1928C1.43767 18.2139 1.58033 18.207 1.71748 18.1724C1.85464 18.1379 1.98357 18.0764 2.09675 17.9916C2.20994 17.9068 2.30513 17.8003 2.37678 17.6784C2.44844 17.5564 2.49513 17.4215 2.51414 17.2813C2.53314 17.1411 2.52409 16.9986 2.4875 16.862C2.25665 15.9454 2.13333 14.9886 2.13333 13.9995C2.13333 13.7317 2.14284 13.4675 2.16042 13.2057C2.17272 13.0545 2.15264 12.9024 2.1015 12.7596C2.05036 12.6168 1.96934 12.4865 1.86386 12.3774C1.75837 12.2684 1.63084 12.1831 1.48978 12.1273C1.34872 12.0715 1.19737 12.0463 1.04583 12.0536ZM13.85 12.9182C13.5675 12.9226 13.2982 13.039 13.1014 13.2417C12.9045 13.4444 12.7961 13.7169 12.8 13.9995C12.8 16.8999 12.6435 19.2925 12.4396 21.1786C12.4217 21.3193 12.4321 21.4621 12.4701 21.5986C12.508 21.7352 12.5729 21.8628 12.6607 21.9741C12.7486 22.0853 12.8577 22.178 12.9818 22.2465C13.1058 22.3151 13.2423 22.3583 13.3833 22.3735C13.5242 22.3887 13.6668 22.3757 13.8026 22.3352C13.9385 22.2947 14.0649 22.2276 14.1745 22.1377C14.2841 22.0478 14.3746 21.9369 14.4409 21.8116C14.5072 21.6863 14.5478 21.549 14.5604 21.4078C14.7725 19.4455 14.9333 16.9763 14.9333 13.9995C14.9353 13.8568 14.9086 13.7151 14.8548 13.5829C14.801 13.4507 14.7213 13.3306 14.6203 13.2298C14.5192 13.129 14.399 13.0495 14.2667 12.996C14.1344 12.9424 13.9927 12.916 13.85 12.9182ZM17.5542 21.7161C17.2898 21.7158 17.0347 21.8137 16.8384 21.9908C16.6421 22.1678 16.5185 22.4115 16.4917 22.6745C16.2445 24.8101 16.0125 26.2557 16.0125 26.2557C15.9903 26.3942 15.9956 26.5357 16.0281 26.6721C16.0606 26.8085 16.1196 26.9371 16.2018 27.0507C16.284 27.1643 16.3878 27.2606 16.5073 27.3341C16.6267 27.4075 16.7594 27.4567 16.8979 27.4789C17.0363 27.5011 17.1778 27.4957 17.3142 27.4632C17.4506 27.4307 17.5793 27.3716 17.6928 27.2894C17.8064 27.2072 17.9026 27.1033 17.9761 26.9839C18.0495 26.8644 18.0987 26.7317 18.1208 26.5932C18.1208 26.5932 18.3605 25.0983 18.6125 22.9203C18.632 22.7698 18.6193 22.6169 18.575 22.4718C18.5308 22.3267 18.4561 22.1926 18.3559 22.0787C18.2557 21.9647 18.1324 21.8734 17.9941 21.8109C17.8559 21.7484 17.7059 21.7161 17.5542 21.7161ZM12.8271 24.537C12.5813 24.5368 12.3429 24.6215 12.1524 24.7767C11.9618 24.932 11.8307 25.1483 11.7813 25.3891C11.6186 26.133 11.5146 26.4599 11.5146 26.4599C11.4721 26.5937 11.4565 26.7345 11.4686 26.8743C11.4807 27.0141 11.5202 27.1502 11.585 27.2747C11.6497 27.3992 11.7384 27.5097 11.8459 27.5999C11.9535 27.6901 12.0777 27.7581 12.2116 27.8002C12.3455 27.8423 12.4864 27.8575 12.6262 27.8451C12.7659 27.8326 12.9019 27.7927 13.0262 27.7276C13.1505 27.6625 13.2608 27.5735 13.3507 27.4657C13.4406 27.3579 13.5083 27.2335 13.55 27.0995C13.55 27.0995 13.6881 26.6523 13.8646 25.8453C13.9009 25.689 13.9015 25.5265 13.8663 25.3699C13.8312 25.2133 13.7611 25.0667 13.6614 24.9409C13.5617 24.8152 13.4349 24.7135 13.2904 24.6436C13.1459 24.5737 12.9876 24.5372 12.8271 24.537Z" fill="#0DD6B8"/>
</svg>
