<svg xmlns="http://www.w3.org/2000/svg" width="24.521" height="24.521" viewBox="0 0 24.521 24.521">
  <g id="seo" transform="translate(-0.003 0.001)">
    <path id="Path_582" data-name="Path 582" d="M232.855,17.07V18.3a1.226,1.226,0,1,1-2.452,0V17.07Zm0,0" transform="translate(-219.365 -16.254)" fill="#dfbc79"/>
    <path id="Path_583" data-name="Path 583" d="M245.354,97.05h-1.128l.564-1.128Zm0,0" transform="translate(-232.526 -91.329)" fill="#d4e1f4"/>
    <path id="Path_584" data-name="Path 584" d="M9.353,469.34H31.421a.817.817,0,0,1,0,1.635H9.353a.817.817,0,0,1,0-1.635Zm0,0" transform="translate(-8.123 -446.863)" fill="#d4e1f4"/>
    <path id="Path_585" data-name="Path 585" d="M197.087,128h4.087a.817.817,0,0,1,.817.817v15.53h-5.721v-15.53A.817.817,0,0,1,197.087,128Zm0,0" transform="translate(-186.866 -121.874)" fill="#fff1d6"/>
    <path id="Path_586" data-name="Path 586" d="M258.864,128.821v15.53H256V128h2.043a.82.82,0,0,1,.817.817Zm0,0" transform="translate(-243.74 -121.874)" fill="#dfbc79"/>
    <path id="Path_587" data-name="Path 587" d="M350.689,213.34h4.087a.817.817,0,0,1,.817.817V225.6h-5.721V214.157A.817.817,0,0,1,350.689,213.34Zm0,0" transform="translate(-333.112 -203.124)" fill="#dfbc79"/>
    <path id="Path_588" data-name="Path 588" d="M412.462,214.157V225.6H409.6V213.34h2.043a.82.82,0,0,1,.817.817Zm0,0" transform="translate(-389.982 -203.124)" fill="#fff1d6"/>
    <path id="Path_589" data-name="Path 589" d="M43.485,298.672h4.087a.817.817,0,0,1,.817.817v7.356H42.668v-7.356a.817.817,0,0,1,.817-.817Zm0,0" transform="translate(-40.621 -284.369)" fill="#fff1d6"/>
    <path id="Path_590" data-name="Path 590" d="M105.263,299.489v7.356H102.4v-8.174h2.043A.82.82,0,0,1,105.263,299.489Zm0,0" transform="translate(-97.495 -284.369)" fill="#dfbc79"/>
    <path id="Path_591" data-name="Path 591" d="M9.353,308.48h1.226a.817.817,0,1,1,0-1.635H11.4v-7.356a.817.817,0,0,1,.817-.817H10.987a.817.817,0,0,0-.817.817v7.356H9.353a.817.817,0,1,0,0,1.635Zm0,0" transform="translate(-8.123 -284.369)" fill="#fff"/>
    <path id="Path_592" data-name="Path 592" d="M34.954,315.738v7.356h-.817v-7.356Zm0,0" transform="translate(-32.499 -300.618)" fill="#fff"/>
    <g id="Group_3326" data-name="Group 3326" transform="translate(0.003 -0.001)">
      <path id="Path_596" data-name="Path 596" d="M23.3,22.068h-.409V11.034a1.226,1.226,0,0,0-1.226-1.226H17.577a1.226,1.226,0,0,0-1.226,1.226V22.068h-.817V6.947a1.226,1.226,0,0,0-1.226-1.226h-.565l-.869-1.738A2.046,2.046,0,0,0,14.14,2.847a2.593,2.593,0,0,0,1.953-.907,1.111,1.111,0,0,0,.145-1.2A1.365,1.365,0,0,0,15,0H9.531A1.366,1.366,0,0,0,8.289.741a1.112,1.112,0,0,0,.145,1.2,2.593,2.593,0,0,0,1.953.907,2.046,2.046,0,0,0,1.267,1.135l-.868,1.738H10.22A1.226,1.226,0,0,0,8.994,6.947V22.068H8.177V15.12a1.226,1.226,0,0,0-1.226-1.226H2.864A1.226,1.226,0,0,0,1.638,15.12v1.635a.409.409,0,1,0,.817,0V15.12a.409.409,0,0,1,.409-.409H6.951a.409.409,0,0,1,.409.409v6.947h-4.9V20.025a.409.409,0,1,0-.817,0v2.043H1.229a1.226,1.226,0,0,0,0,2.452H23.3a1.226,1.226,0,1,0,0-2.452Zm-6.13-11.034a.409.409,0,0,1,.409-.409h4.087a.409.409,0,0,1,.409.409V22.068h-4.9ZM15.5,1.094a.3.3,0,0,1-.044.334,1.7,1.7,0,0,1-1.15.583V.817H15a.543.543,0,0,1,.5.277Zm-6.474,0a.543.543,0,0,1,.5-.277h.689V2.011A1.7,1.7,0,0,1,9.071,1.43a.3.3,0,0,1-.045-.336Zm2.011.949V.817H13.49V2.043a1.226,1.226,0,1,1-2.452,0Zm1.226,2.549.565,1.13H11.7ZM9.812,6.947a.409.409,0,0,1,.409-.409h4.087a.409.409,0,0,1,.409.409V22.068h-4.9ZM23.3,23.7H1.229a.409.409,0,0,1,0-.817H23.3a.409.409,0,1,1,0,.817Zm0,0" transform="translate(-0.003 0.001)" fill="#262421"/>
      <path id="Path_597" data-name="Path 597" d="M34.59,376.29a.409.409,0,0,0,.29-.7l-.061-.049a.3.3,0,0,0-.074-.037.253.253,0,0,0-.074-.025.59.59,0,0,0-.082-.008.43.43,0,0,0-.29.118.423.423,0,0,0-.086.135.4.4,0,0,0,.221.531.412.412,0,0,0,.155.033Zm0,0" transform="translate(-32.547 -357.49)" fill="#262421"/>
      <path id="Path_598" data-name="Path 598" d="M385.721,1.4l.12.12a.409.409,0,0,0,.578-.578L385.6.127a.41.41,0,0,0-.579,0l-.817.818a.409.409,0,0,0,.578.578l.121-.12V3.277a.409.409,0,0,0,.817,0Zm0,0" transform="translate(-365.696 -0.007)" fill="#262421"/>
      <path id="Path_599" data-name="Path 599" d="M401.479,93.871a.409.409,0,0,0-.409.409V95.1a.409.409,0,0,0,.817,0V94.28A.409.409,0,0,0,401.479,93.871Zm0,0" transform="translate(-381.863 -89.375)" fill="#262421"/>
      <path id="Path_600" data-name="Path 600" d="M78.277,145.114a.41.41,0,0,0-.446.089l-.817.817a.409.409,0,0,0,.578.578l.12-.12v.648a.409.409,0,1,0,.817,0v-.648l.12.12a.409.409,0,0,0,.578-.578l-.817-.817A.4.4,0,0,0,78.277,145.114Zm0,0" transform="translate(-73.216 -138.134)" fill="#262421"/>
      <path id="Path_601" data-name="Path 601" d="M94.279,213.34a.409.409,0,0,0-.409.409v2.043a.409.409,0,0,0,.817,0v-2.043a.409.409,0,0,0-.409-.409Zm0,0" transform="translate(-89.375 -203.123)" fill="#262421"/>
    </g>
  </g>
</svg>
