<svg xmlns="http://www.w3.org/2000/svg" width="25.045" height="24.571" viewBox="0 0 25.045 24.571">
  <g id="Group_3386" data-name="Group 3386" transform="translate(-202.955 -744)">
    <g id="Group_3385" data-name="Group 3385" transform="translate(207.817 747.817)">
      <path id="Path_658" data-name="Path 658" d="M81.431,80h4.008a1.431,1.431,0,0,1,1.431,1.431v4.008a1.431,1.431,0,0,1-1.431,1.431H81.431A1.431,1.431,0,0,1,80,85.439V81.431A1.431,1.431,0,0,1,81.431,80Z" transform="translate(-80 -80)" fill="#fff1d6"/>
      <path id="Path_659" data-name="Path 659" d="M81.431,288h4.008a1.431,1.431,0,0,1,1.431,1.431v4.008a1.431,1.431,0,0,1-1.431,1.431H81.431A1.431,1.431,0,0,1,80,293.439v-4.008A1.431,1.431,0,0,1,81.431,288Z" transform="translate(-80 -278.076)" fill="#fff1d6"/>
      <path id="Path_660" data-name="Path 660" d="M289.431,80h4.008a1.431,1.431,0,0,1,1.431,1.431v4.008a1.431,1.431,0,0,1-1.431,1.431h-4.008A1.431,1.431,0,0,1,288,85.439V81.431A1.431,1.431,0,0,1,289.431,80Z" transform="translate(-278.076 -80)" fill="#fff1d6"/>
    </g>
    <path id="Path_661" data-name="Path 661" d="M164.958,81.431v4.008a1.431,1.431,0,0,1-1.431,1.431H162a1.431,1.431,0,0,0,1.431-1.431V81.431A1.431,1.431,0,0,0,162,80h1.527A1.431,1.431,0,0,1,164.958,81.431Z" transform="translate(49.729 667.817)" fill="#dfbc79"/>
    <path id="Path_662" data-name="Path 662" d="M164.958,289.431v4.008a1.431,1.431,0,0,1-1.431,1.431H162a1.431,1.431,0,0,0,1.431-1.431v-4.008A1.431,1.431,0,0,0,162,288h1.527A1.431,1.431,0,0,1,164.958,289.431Z" transform="translate(49.729 469.741)" fill="#dfbc79"/>
    <path id="Path_663" data-name="Path 663" d="M372.958,81.431v4.008a1.431,1.431,0,0,1-1.431,1.431H370a1.431,1.431,0,0,0,1.431-1.431V81.431A1.431,1.431,0,0,0,370,80h1.527A1.431,1.431,0,0,1,372.958,81.431Z" transform="translate(-148.347 667.817)" fill="#dfbc79"/>
    <path id="Path_664" data-name="Path 664" d="M288.477,288h2.863a.477.477,0,0,1,.477.477v2.863a.477.477,0,0,1-.477.477h-2.863a.477.477,0,0,1-.477-.477v-2.863A.477.477,0,0,1,288.477,288Z" transform="translate(-70.259 469.741)" fill="#dfbc79"/>
    <path id="Path_665" data-name="Path 665" d="M368.522,368h2.3a.513.513,0,0,1,.522.5v2.214a.513.513,0,0,1-.522.5h-2.3a.513.513,0,0,1-.522-.5V368.5A.513.513,0,0,1,368.522,368Z" transform="translate(-146.732 393.391)" fill="#dfbc79"/>
    <path id="Path_666" data-name="Path 666" d="M371.643,4.1a.455.455,0,0,1-.455-.455V1.309a.4.4,0,0,0-.4-.4h-2.334a.455.455,0,1,1,0-.911h2.334A1.311,1.311,0,0,1,372.1,1.309V3.643A.455.455,0,0,1,371.643,4.1Z" transform="translate(-144.098 744)" fill="#262421"/>
    <path id="Path_667" data-name="Path 667" d="M.455,4.1A.455.455,0,0,1,0,3.643V1.309A1.311,1.311,0,0,1,1.309,0H3.643a.455.455,0,1,1,0,.911H1.309a.4.4,0,0,0-.4.4V3.643A.455.455,0,0,1,.455,4.1Z" transform="translate(202.955 744)" fill="#262421"/>
    <path id="Path_668" data-name="Path 668" d="M3.643,372.1H1.309A1.311,1.311,0,0,1,0,370.789v-2.334a.455.455,0,1,1,.911,0v2.334a.4.4,0,0,0,.4.4H3.643a.455.455,0,0,1,0,.911Z" transform="translate(202.955 396.473)" fill="#262421"/>
    <path id="Path_669" data-name="Path 669" d="M370.789,372.1h-2.334a.455.455,0,1,1,0-.911h2.334a.4.4,0,0,0,.4-.4v-2.334a.455.455,0,1,1,.911,0v2.334A1.311,1.311,0,0,1,370.789,372.1Z" transform="translate(-144.098 396.473)" fill="#262421"/>
    <path id="Path_670" data-name="Path 670" d="M69.8,70.618H64.95a1.007,1.007,0,0,1-1.006-1.006V64.775a1.007,1.007,0,0,1,1.006-1.006H69.8a1.007,1.007,0,0,1,1.006,1.006v4.838A1.007,1.007,0,0,1,69.8,70.618Zm-4.853-6.15a.306.306,0,0,0-.306.306v4.838a.306.306,0,0,0,.306.306H69.8a.306.306,0,0,0,.306-.306V64.775a.306.306,0,0,0-.306-.306Z" transform="translate(143.881 684.054)" fill="#262421"/>
    <path id="Path_678" data-name="Path 678" d="M69.8,70.618H64.95a1.007,1.007,0,0,1-1.006-1.006V64.775a1.007,1.007,0,0,1,1.006-1.006H69.8a1.007,1.007,0,0,1,1.006,1.006v4.838A1.007,1.007,0,0,1,69.8,70.618Zm-4.853-6.15a.306.306,0,0,0-.306.306v4.838a.306.306,0,0,0,.306.306H69.8a.306.306,0,0,0,.306-.306V64.775a.306.306,0,0,0-.306-.306Z" transform="translate(143.881 693.993)" fill="#262421"/>
    <path id="Path_677" data-name="Path 677" d="M69.8,70.618H64.95a1.007,1.007,0,0,1-1.006-1.006V64.775a1.007,1.007,0,0,1,1.006-1.006H69.8a1.007,1.007,0,0,1,1.006,1.006v4.838A1.007,1.007,0,0,1,69.8,70.618Zm-4.853-6.15a.306.306,0,0,0-.306.306v4.838a.306.306,0,0,0,.306.306H69.8a.306.306,0,0,0,.306-.306V64.775a.306.306,0,0,0-.306-.306Z" transform="translate(153.802 684.054)" fill="#262421"/>
    <path id="Path_673" data-name="Path 673" d="M278.359,275.151h-2.486v-2.594a.558.558,0,0,0-.557-.557h-2.758a.558.558,0,0,0-.557.557v2.723a.558.558,0,0,0,.557.557h2.629v2.457a.558.558,0,0,0,.557.557h2.615a.558.558,0,0,0,.557-.557v-2.585A.558.558,0,0,0,278.359,275.151Zm-5.673-2.465h2.5v2.465h-2.5Zm5.544,5.479h-2.358v-2.328h2.358Z" transform="translate(-54.259 485.741)" fill="#262421"/>
    <path id="Path_674" data-name="Path 674" d="M129.527,130.29h-.763a.763.763,0,0,1-.763-.763v-.763a.763.763,0,0,1,.763-.763h.763a.763.763,0,0,1,.763.763v.763A.763.763,0,0,1,129.527,130.29Z" transform="translate(82.107 622.107)" fill="#262421"/>
    <path id="Path_675" data-name="Path 675" d="M337.527,130.29h-.763a.763.763,0,0,1-.763-.763v-.763a.763.763,0,0,1,.763-.763h.763a.763.763,0,0,1,.763.763v.763A.763.763,0,0,1,337.527,130.29Z" transform="translate(-115.969 622.107)" fill="#262421"/>
    <path id="Path_676" data-name="Path 676" d="M129.527,338.29h-.763a.763.763,0,0,1-.763-.763v-.763a.763.763,0,0,1,.763-.763h.763a.763.763,0,0,1,.763.763v.763A.763.763,0,0,1,129.527,338.29Z" transform="translate(82.107 424.031)" fill="#262421"/>
  </g>
</svg>
