<svg xmlns="http://www.w3.org/2000/svg" width="24.501" height="24.5" viewBox="0 0 24.501 24.5">
  <g id="menu_1_" data-name="menu (1)" transform="translate(0 -0.011)">
    <path id="Path_650" data-name="Path 650" d="M20.978,9.141a11.753,11.753,0,0,0-6.342,1.849.417.417,0,0,1-.1.491,14.89,14.89,0,0,0-1.082,1.541A5.4,5.4,0,0,1,11.7,14.289a.456.456,0,0,1-.466-.014,11.812,11.812,0,1,0,9.743-5.134Z" transform="translate(-8.727 -8.693)" fill="#dfbc79"/>
    <path id="Path_651" data-name="Path 651" d="M17.7,9.141c-.169,0-.336.006-.5.013a2.237,2.237,0,0,1-2.087,1.019c-.305.016-.795-.034-1.266-.02a.48.48,0,0,1-.111.344A1.839,1.839,0,0,1,13,11a.483.483,0,0,1-.2.4,11.278,11.278,0,0,1-1.01.646.445.445,0,0,1-.1.484.912.912,0,0,0-.206.52.477.477,0,0,1-.582.331.425.425,0,0,1-.23-.162,2.834,2.834,0,0,0-.475.527c-.153.244-.182.547-.4.758a.554.554,0,0,1-.819.017,11.548,11.548,0,0,0-1.15,2.892q-.21.552-.433,1.1c.035.84-.247,1.623-.272,2.471a.457.457,0,0,1-.024.1,11.973,11.973,0,0,0,1.814,5.218c.628.882.942,1.819,1.5,2.723.679,1.1,1.937,1.626,2.966,2.339a.474.474,0,0,1,.212.325c.476.244.963.468,1.429.732a.511.511,0,0,1,.045.031A11.81,11.81,0,1,0,17.7,9.141Z" transform="translate(-6.76 -8.693)" fill="#fff1d6"/>
    <path id="Path_652" data-name="Path 652" d="M21.177,41.491c.22,0,.439-.007.656-.019C15.614,41.131,10.458,36.4,10.458,30.1A11.813,11.813,0,0,1,21.614,18.3c-.217-.012-.436-.019-.656-.019A11.813,11.813,0,0,0,9.145,30.1C9.145,36.621,14.652,41.491,21.177,41.491Z" transform="translate(-8.707 -17.398)" fill="#fff"/>
    <g id="Group_3383" data-name="Group 3383" transform="translate(0 0.011)">
      <path id="Path_653" data-name="Path 653" d="M148.082,147.158h-10.5a.438.438,0,0,1,0-.875h10.5a.438.438,0,1,1,0,.875Z" transform="translate(-130.581 -139.283)" fill="#262421"/>
      <path id="Path_654" data-name="Path 654" d="M148.082,247.73h-10.5a.438.438,0,0,1,0-.875h10.5a.438.438,0,0,1,0,.875Z" transform="translate(-130.581 -235.043)" fill="#262421"/>
      <path id="Path_655" data-name="Path 655" d="M148.082,348.3h-10.5a.437.437,0,1,1,0-.875h10.5a.438.438,0,1,1,0,.875Z" transform="translate(-130.581 -330.801)" fill="#262421"/>
      <path id="Path_656" data-name="Path 656" d="M12.25,120.24a12.251,12.251,0,0,1-9.868-19.51.437.437,0,1,1,.7.519,11.376,11.376,0,0,0,16.806,15.167.438.438,0,1,1,.588.648,12.222,12.222,0,0,1-8.23,3.176Z" transform="translate(0 -95.74)" fill="#262421"/>
      <path id="Path_657" data-name="Path 657" d="M121.1,18.824a.437.437,0,0,1-.373-.665A11.377,11.377,0,0,0,104.407,2.992a.437.437,0,1,1-.508-.713,12.252,12.252,0,0,1,17.58,16.334.437.437,0,0,1-.374.21Z" transform="translate(-98.752 -0.011)" fill="#262421"/>
      <circle id="Ellipse_100" data-name="Ellipse 100" cx="0.438" cy="0.438" r="0.438" transform="translate(3.5 3.499)" fill="#262421"/>
      <circle id="Ellipse_101" data-name="Ellipse 101" cx="0.438" cy="0.438" r="0.438" transform="translate(21.001 19.25)" fill="#262421"/>
    </g>
  </g>
</svg>
