<svg xmlns="http://www.w3.org/2000/svg" width="23.474" height="24.5" viewBox="0 0 23.474 24.5">
  <g id="_023---Moisturising-Face" data-name="023---Moisturising-Face" transform="translate(-0.257)">
    <g id="Layer_4" transform="translate(0.656 0.408)">
      <path id="Shape" d="M10.754,42.242v1.307H6.324l-3.3-3.307a4.468,4.468,0,0,1-.9-1.3L.326,35a1,1,0,1,1,1.833-.808L3.18,36.578a3.931,3.931,0,0,0,.2.416l.176-.09a1.64,1.64,0,0,1,2.213-.1c.114.1.237.2.367.3a8.675,8.675,0,0,0,2.4,1.466,2.839,2.839,0,0,1,1.311.964,3.949,3.949,0,0,1,.6,1.049,4.576,4.576,0,0,1,.3,1.662Z" transform="translate(-0.233 -19.866)" fill="#fff1d6"/>
      <path id="Shape-2" data-name="Shape" d="M40.429,35l-1.793,3.944a4.468,4.468,0,0,1-.9,1.3l-3.3,3.307H30V42.242a4.554,4.554,0,0,1,.3-1.658,3.8,3.8,0,0,1,.6-1.053,2.839,2.839,0,0,1,1.311-.964,8.854,8.854,0,0,0,2.434-1.486,0,0,0,0,1,0,0c.114-.094.225-.184.331-.274a1.64,1.64,0,0,1,2.213.1l.176.09a3.932,3.932,0,0,0,.2-.416L38.6,34.19A1,1,0,1,1,40.429,35Z" transform="translate(-17.845 -19.866)" fill="#fff1d6"/>
      <path id="Shape-3" data-name="Shape" d="M24.828,9.973c0,.294,0,.5-.008.7a22.1,22.1,0,0,1-.539,5.12,11.979,11.979,0,0,1-.772,2.185c-.1.22-.216.437-.331.649a0,0,0,0,0,0,0,8.854,8.854,0,0,1-2.434,1.486,2.839,2.839,0,0,0-1.311.964,3.8,3.8,0,0,0-.6,1.053,5.665,5.665,0,0,1-1.111.106,5.525,5.525,0,0,1-1.127-.11,3.949,3.949,0,0,0-.6-1.049,2.839,2.839,0,0,0-1.311-.964,8.675,8.675,0,0,1-2.4-1.466c-.127-.22-.245-.445-.351-.674a11.979,11.979,0,0,1-.772-2.185,22.1,22.1,0,0,1-.539-5.12c-.008-.241-.008-.482-.008-.727a20.529,20.529,0,0,1,7.1-7.554,20.746,20.746,0,0,1,7.117,7.583Z" transform="translate(-6.373 -1.414)" fill="#fff1d6"/>
      <path id="Shape-4" data-name="Shape" d="M27.112,2.39q-.314.184-.612.379a21.2,21.2,0,0,1,6.5,7.2c0,.294,0,.5-.008.7a22.1,22.1,0,0,1-.539,5.12,11.979,11.979,0,0,1-.772,2.185c-.1.22-.216.437-.331.649a0,0,0,0,0,0,0,8.854,8.854,0,0,1-2.434,1.486,2.839,2.839,0,0,0-1.311.964,3.8,3.8,0,0,0-.6,1.053c-.161.032-.327.056-.5.073a5.913,5.913,0,0,0,.612.033,5.665,5.665,0,0,0,1.111-.106,3.8,3.8,0,0,1,.6-1.053,2.839,2.839,0,0,1,1.311-.964,8.854,8.854,0,0,0,2.434-1.486,0,0,0,0,1,0,0c.114-.212.229-.429.331-.649a11.979,11.979,0,0,0,.772-2.185,22.1,22.1,0,0,0,.539-5.12c.008-.2.008-.4.008-.7A20.719,20.719,0,0,0,27.112,2.39Z" transform="translate(-15.774 -1.414)" fill="#dfbc79"/>
      <path id="Shape-5" data-name="Shape" d="M8.069,27.036l-.253,0c-.788-.159-2.425-.821-2.425-3.561,0-2.572,1.16-2.2,1.821-1.788l.02.016h0a3.4,3.4,0,0,1,.294.208,22.1,22.1,0,0,0,.539,5.12Z" transform="translate(-3.284 -12.659)" fill="#dfbc79"/>
      <path id="Shape-6" data-name="Shape" d="M11.477,35.244l-.147-.025" transform="translate(-6.799 -20.839)" fill="#e8edfc"/>
      <path id="Shape-7" data-name="Shape" d="M46.769,23.481c0,2.924-1.862,3.479-2.572,3.585l-.106-.029a22.1,22.1,0,0,0,.539-5.12,2.9,2.9,0,0,1,.282-.2C45.568,21.292,46.769,20.859,46.769,23.481Z" transform="translate(-26.182 -12.66)" fill="#dfbc79"/>
      <path id="Shape-8" data-name="Shape" d="M25.041,39.633c1.438,0,2.4-.98,1.919-.98S25.521,38,25.041,38s-1.438.653-1.917.653S23.6,39.633,25.041,39.633Z" transform="translate(-13.703 -22.484)" fill="#dfbc79"/>
      <path id="Shape-9" data-name="Shape" d="M32.894,8.481c-.233.323-.384.5-.384.5l-.078.073a2.9,2.9,0,0,0-.282.2c.008-.2.008-.4.008-.7A20.746,20.746,0,0,0,25.042.976,13.23,13.23,0,0,0,23,0H34.564l.167.747A10.726,10.726,0,0,1,32.894,8.481Z" transform="translate(-13.704 0)" fill="#fff1d6"/>
      <path id="Shape-10" data-name="Shape" d="M47.64.747,47.472,0H46.247l.167.747a10.747,10.747,0,0,1-1.6,7.378c.089.152.174.3.25.433,0,.294,0,.5-.008.7a2.9,2.9,0,0,1,.282-.2l.078-.073s.151-.18.384-.5A10.726,10.726,0,0,0,47.64.747Z" transform="translate(-26.612 0)" fill="#dfbc79"/>
      <path id="Shape-11" data-name="Shape" d="M6.693,8.53c0,.245,0,.486.008.727a3.4,3.4,0,0,0-.294-.208h0l-.02-.016-.057-.049s-.151-.18-.384-.5A10.726,10.726,0,0,1,4.1.747L4.271,0h7.481a13.23,13.23,0,0,1,2.042.976A20.529,20.529,0,0,0,6.693,8.53Z" transform="translate(-2.455 0)" fill="#fff1d6"/>
      <path id="Shape-12" data-name="Shape" d="M16.274.976A13.23,13.23,0,0,0,14.233,0H13.008a13.23,13.23,0,0,1,2.042.976,20.245,20.245,0,0,0-6.867,7.15c.078.12.157.24.24.357.233.323.384.5.384.5l.057.049.02.016h0a3.4,3.4,0,0,1,.294.208c-.008-.241-.008-.482-.008-.727a20.519,20.519,0,0,1,7.1-7.556Z" transform="translate(-4.936 0)" fill="#dfbc79"/>
    </g>
    <g id="Layer_3" transform="translate(0.658 0.408)">
      <path id="Shape-13" data-name="Shape" d="M28.546,1.105c-.1-.052-.208-.1-.313-.152C28.338,1,28.442,1.054,28.546,1.105Z" transform="translate(-16.803 -0.564)" fill="#fff"/>
      <path id="Shape-14" data-name="Shape" d="M2.122,38.96c.452.987.742,1.137,4.206,4.606H7.553c-3.416-3.421-3.76-3.634-4.206-4.606L1.555,35.015a.994.994,0,0,1,.3-1.2A.994.994,0,0,0,.24,34.6C.24,34.911.189,34.7,2.122,38.96Z" transform="translate(-0.24 -19.883)" fill="#fff"/>
      <path id="Shape-15" data-name="Shape" d="M7.815,27.039l.253,0a11.414,11.414,0,0,0,.776,2.188c.423-.041-2.227-3-2.227-5.745a2.648,2.648,0,0,1,.463-1.869c-.675-.371-1.69-.54-1.69,1.869,0,2.74,1.637,3.4,2.425,3.561Z" transform="translate(-3.287 -12.658)" fill="#fff"/>
      <path id="Shape-16" data-name="Shape" d="M5.494,0H4.269L4.1.747A10.676,10.676,0,0,0,6.274,8.923c.375-.339.694-.728.6-.871A10.726,10.726,0,0,1,5.327.747Z" transform="translate(-2.456)" fill="#fff"/>
      <path id="Shape-17" data-name="Shape" d="M49.29,21.9l.008.016c.027-.016.056-.032.085-.047-.048-.047-.021-.056-.093.031Z" transform="translate(-29.261 -12.921)" fill="#fff"/>
    </g>
    <path id="Rectangle-path" d="M0,0H.817V3.267H0Z" transform="matrix(0.91, -0.414, 0.414, 0.91, 0.38, 15.705)" fill="#fff"/>
    <g id="Group_3324" data-name="Group 3324" transform="translate(0.257 0)">
      <path id="Shape-18" data-name="Shape" d="M2.546,41.523a.408.408,0,1,1,.408-.408A.408.408,0,0,1,2.546,41.523Z" transform="translate(-1.37 -24.085)" fill="#262421"/>
      <path id="Shape-19" data-name="Shape" d="M3.967,16.933l-1.011-2.36A1.409,1.409,0,1,0,.377,15.712a.408.408,0,0,0,.744-.338.593.593,0,1,1,1.084-.479c1.654,3.86,1.011,2.92,4.255,6.166a.408.408,0,1,0,.577-.577,22.2,22.2,0,0,1-2.679-2.817,1.234,1.234,0,0,1,1.573-.006c2.765,2.327,3.049,1.452,4.024,2.67a4.783,4.783,0,0,1,.813,3.353H6.918C2.85,19.614,3.406,20.4,2.473,18.347a.408.408,0,1,0-.743.338l.44.969a4.815,4.815,0,0,0,.983,1.419L6.46,24.38a.408.408,0,0,0,.289.12h4.428a.408.408,0,0,0,.408-.408,10.293,10.293,0,0,0-.135-2.477,5.755,5.755,0,0,0,1.087,0,9.837,9.837,0,0,0-.135,2.476.408.408,0,0,0,.408.408h4.428a.408.408,0,0,0,.289-.12l3.307-3.307c.824-.824.89-1.213,2.777-5.361a1.409,1.409,0,0,0-2.578-1.138L20.021,16.93a2.073,2.073,0,0,0-1.626-.32,12.249,12.249,0,0,0,.48-1.421c.811-.163,2.774-.875,2.774-3.961,0-1.046-.182-2.334-1.222-2.477a11.1,11.1,0,0,0,1.652-7.688L21.916.32a.408.408,0,0,0-.4-.32H2.472a.408.408,0,0,0-.4.32L1.9,1.1A11.084,11.084,0,0,0,3.561,8.757c-1.03.154-1.208,1.439-1.208,2.474,0,3.087,1.965,3.8,2.777,3.961a12.23,12.23,0,0,0,.485,1.429,2.065,2.065,0,0,0-1.647.313Zm15.666.727c-.339.52-.438.575-2.684,2.821a.408.408,0,0,0,.577.577c3.213-3.212,2.6-2.3,4.255-6.164a.593.593,0,0,1,1.084.479c-1.917,4.217-1.929,4.441-2.609,5.122l-3.187,3.187H13.219v-.9a3.927,3.927,0,0,1,.813-2.454c.958-1.2,1.263-.346,4.024-2.67a1.238,1.238,0,0,1,1.578,0Zm1.2-6.432c0,2.056-1,2.792-1.738,3.056a23.479,23.479,0,0,0,.412-4.41c.378-.268.713-.38.9-.29.1.048.428.31.428,1.645ZM21.189.817a10.131,10.131,0,0,1-1.674,7.83c-.039-3.05-.844-5.139-2.464-6.378a.408.408,0,0,0-.5.649,6.07,6.07,0,0,1,2.068,4.471,19.851,19.851,0,0,0-6.8-6.572ZM3.169,11.229c0-1.336.327-1.6.429-1.647.182-.088.524.026.9.29a23.485,23.485,0,0,0,.412,4.412C4.167,14.023,3.169,13.287,3.169,11.229ZM4.537,8.738A10.1,10.1,0,0,1,2.8.817H8.368A10.633,10.633,0,0,0,5.959,3.011a.408.408,0,1,0,.638.51A9.875,9.875,0,0,1,9.965.85a12.825,12.825,0,0,1,1.216.553A21.234,21.234,0,0,0,4.537,8.738Zm.764.309a20.45,20.45,0,0,1,6.692-7.188A20.608,20.608,0,0,1,18.7,9.072c-.007,2.9-.18,5.757-1.565,8.284a8.115,8.115,0,0,1-2.24,1.367,3.654,3.654,0,0,0-2.069,2.034,5.472,5.472,0,0,1-1.667,0,3.65,3.65,0,0,0-2.067-2.031,8.025,8.025,0,0,1-2.2-1.339C5.487,14.9,5.3,11.91,5.3,9.046Z" transform="translate(-0.257 0)" fill="#262421"/>
      <path id="Shape-20" data-name="Shape" d="M16.587,20.276a1.786,1.786,0,0,1,1.371-.1l1.584.528a.409.409,0,1,0,.258-.776L18.216,19.4a2.6,2.6,0,0,0-1.994.142.408.408,0,1,0,.365.73Z" transform="translate(-9.568 -11.401)" fill="#262421"/>
      <path id="Shape-21" data-name="Shape" d="M32.411,20.727a10.51,10.51,0,0,0,1.715-.549,1.782,1.782,0,0,1,1.371.1.408.408,0,1,0,.365-.73,2.6,2.6,0,0,0-1.995-.142l-1.583.528a.408.408,0,0,0,.127.8Z" transform="translate(-19.041 -11.4)" fill="#262421"/>
      <path id="Shape-22" data-name="Shape" d="M14.408,26.226a1.522,1.522,0,0,0,.841-.309c.062.037.122.069.185.1a.723.723,0,0,1-.209.208.408.408,0,0,0-.408.408c0,.5.754.694,1.418-.334a4.009,4.009,0,0,0,1.981-.1.408.408,0,0,0-.263-.773,2.961,2.961,0,0,1-2.482-.348.408.408,0,0,0-.531.037,1.015,1.015,0,0,1-.531.29.408.408,0,1,0,0,.817Z" transform="translate(-8.388 -14.793)" fill="#262421"/>
      <path id="Shape-23" data-name="Shape" d="M36.021,25.082a2.957,2.957,0,0,1-2.482.348.408.408,0,0,0-.264.773,4,4,0,0,0,1.981.1c.207.322.563.743,1.01.743a.415.415,0,0,0,.417-.408.4.4,0,0,0-.4-.408.673.673,0,0,1-.225-.211c.061-.031.122-.063.184-.1a1.522,1.522,0,0,0,.841.311.408.408,0,1,0,0-.817,1.013,1.013,0,0,1-.528-.289.408.408,0,0,0-.534-.038Z" transform="translate(-19.629 -14.792)" fill="#262421"/>
      <path id="Shape-24" data-name="Shape" d="M25.182,33.748a2.61,2.61,0,0,0,2.9,0,.408.408,0,1,0-.453-.679,1.8,1.8,0,0,1-2,0,.408.408,0,0,0-.453.679Z" transform="translate(-14.897 -19.525)" fill="#262421"/>
      <path id="Shape-25" data-name="Shape" d="M27.369,38.655a3.151,3.151,0,0,1-.79-.29,1.935,1.935,0,0,0-2.255,0,3.151,3.151,0,0,1-.79.29.5.5,0,0,0-.535.49c0,.576,1.154,1.307,2.45,1.307s2.45-.731,2.45-1.307a.5.5,0,0,0-.531-.49Zm-3.193.665a7.59,7.59,0,0,1,1.274-.5,7.671,7.671,0,0,1,1.276.5,2.741,2.741,0,0,1-2.552,0Z" transform="translate(-13.713 -22.485)" fill="#262421"/>
      <path id="Shape-26" data-name="Shape" d="M28.225,46h-.817a.408.408,0,0,0,0,.817h.817a.408.408,0,1,0,0-.817Z" transform="translate(-16.08 -27.217)" fill="#262421"/>
      <circle id="Oval" cx="0.408" cy="0.408" r="0.408" transform="translate(4.387 4.083)" fill="#262421"/>
    </g>
  </g>
</svg>
