<svg xmlns="http://www.w3.org/2000/svg" width="24.001" height="24.002" viewBox="0 0 24.001 24.002">
  <g id="house_3_" data-name="house (3)" transform="translate(-0.007 0)">
    <path id="Path_493" data-name="Path 493" d="M356.409,58.2V52.968H353.1v2.158Z" transform="translate(-336.538 -50.485)" fill="#dfbc79"/>
    <path id="Path_494" data-name="Path 494" d="M355.167,57.52V52.968H353.1v2.158Z" transform="translate(-336.538 -50.485)" fill="#fff1d6"/>
    <path id="Path_495" data-name="Path 495" d="M52.96,17.668V32h9.518V8.83Z" transform="translate(-50.47 -8.416)" fill="#fff"/>
    <path id="Path_496" data-name="Path 496" d="M255.995,8.83V32h9.518V17.668Z" transform="translate(-243.987 -8.416)" fill="#dfbc79"/>
    <path id="Path_497" data-name="Path 497" d="M87.72,8.83l-8.277,9.1V32H96V18.348Z" transform="translate(-75.712 -8.416)" fill="#fff1d6"/>
    <path id="Path_498" data-name="Path 498" d="M195,291.313h4.19a.8.8,0,0,1,.8.8v9.13H194.2v-9.13a.8.8,0,0,1,.8-.8Z" transform="translate(-185.091 -277.657)" fill="#dfbc79"/>
    <path id="Path_499" data-name="Path 499" d="M195,291.313h2.949a.8.8,0,0,1,.8.8v9.13H194.2v-9.13a.8.8,0,0,1,.8-.8Z" transform="translate(-185.091 -277.657)" fill="#fff1d6"/>
    <g id="Group_3233" data-name="Group 3233" transform="translate(0.007 0)">
      <path id="Path_500" data-name="Path 500" d="M23.6,11.587a.412.412,0,0,1-.282-.111L12.008.978.7,11.477a.414.414,0,0,1-.563-.607L11.726.11a.414.414,0,0,1,.563,0L23.877,10.87a.414.414,0,0,1-.282.717Z" transform="translate(-0.007 0)" fill="#262421"/>
      <path id="Path_501" data-name="Path 501" d="M63.582,16.967a.414.414,0,0,1-.414-.414V9.432L54.064.978l-9.1,8.454v1.741a.414.414,0,1,1-.828,0V9.252a.415.415,0,0,1,.132-.3L53.782.11a.414.414,0,0,1,.563,0l9.518,8.838a.415.415,0,0,1,.132.3v7.3a.414.414,0,0,1-.414.414Z" transform="translate(-42.063 0)" fill="#262421"/>
      <path id="Path_502" data-name="Path 502" d="M63.582,310.072H44.546a.414.414,0,0,1-.414-.414v-9.1a.414.414,0,0,1,.828,0v8.69H63.168v-3.311a.414.414,0,0,1,.828,0v3.724a.414.414,0,0,1-.414.414Z" transform="translate(-42.063 -286.07)" fill="#262421"/>
      <path id="Path_503" data-name="Path 503" d="M191.581,293.245h-5.794a.414.414,0,0,1-.414-.414V283.7a1.217,1.217,0,0,1,1.215-1.215h4.19A1.217,1.217,0,0,1,192,283.7v9.13A.414.414,0,0,1,191.581,293.245Zm-5.38-.828h4.966V283.7a.388.388,0,0,0-.388-.388h-4.19a.388.388,0,0,0-.388.388v8.716Z" transform="translate(-176.684 -269.242)" fill="#262421"/>
      <path id="Path_504" data-name="Path 504" d="M347.995,50.2a.414.414,0,0,1-.282-.111L344.4,47.014a.414.414,0,0,1-.132-.3V44.553a.414.414,0,0,1,.414-.414h3.311a.414.414,0,0,1,.414.414v5.232A.414.414,0,0,1,347.995,50.2Zm-2.9-3.668,2.483,2.306V44.967H345.1Z" transform="translate(-328.131 -42.07)" fill="#262421"/>
      <circle id="Ellipse_17" data-name="Ellipse 17" cx="0.414" cy="0.414" r="0.414" transform="translate(2.069 12.415)" fill="#262421"/>
      <circle id="Ellipse_18" data-name="Ellipse 18" cx="0.414" cy="0.414" r="0.414" transform="translate(21.105 17.795)" fill="#262421"/>
    </g>
  </g>
</svg>
