<svg width="45" height="45" viewBox="0 0 45 45" fill="none" xmlns="http://www.w3.org/2000/svg">
<path d="M41.3956 17.3908C41.2629 16.8297 41.6104 16.2661 42.1715 16.1333C42.7325 16.0006 43.2962 16.3482 43.4289 16.9092C43.6243 17.7299 43.7735 18.5756 43.8754 19.4436C43.9744 20.2934 44.026 21.1517 44.026 22.013C44.026 28.0922 41.5628 33.5957 37.5782 37.5782C33.595 41.5614 28.0905 44.026 22.013 44.026C15.9338 44.026 10.4303 41.5628 6.4478 37.5782C2.46458 33.595 0 28.0905 0 22.013C0 15.9338 2.46325 10.4303 6.4478 6.4478C10.431 2.46458 15.9355 0 22.013 0C23.9363 0 25.809 0.249864 27.6025 0.720068C29.4447 1.20292 31.1947 1.9188 32.8178 2.83707C33.3189 3.11906 33.4961 3.75411 33.2141 4.25511C32.9321 4.75612 32.297 4.93332 31.7976 4.65133C30.3321 3.82385 28.7508 3.17613 27.0803 2.73934C25.4712 2.31782 23.774 2.09326 22.0143 2.09326C16.5127 2.09326 11.5314 4.32358 7.92694 7.92841C4.32203 11.5333 2.09179 16.5147 2.09179 22.0158C2.09179 27.5174 4.32211 32.4986 7.92694 36.1031C11.5318 39.7076 16.5133 41.9383 22.0143 41.9383C27.5159 41.9383 32.4971 39.7079 36.1016 36.1031C39.7065 32.4982 41.9368 27.5168 41.9368 22.0158C41.9368 21.2188 41.8907 20.44 41.8028 19.6823C41.7119 18.9119 41.5766 18.1471 41.3965 17.392L41.3956 17.3908ZM9.56405 21.4772C8.53828 20.468 8.52433 18.8172 9.53323 17.7912C10.5424 16.7654 12.1932 16.7515 13.2192 17.7604L20.0759 24.5181L37.6996 6.54965C38.7088 5.52388 40.3596 5.50993 41.3856 6.51883C42.4114 7.52799 42.4253 9.17879 41.4164 10.2048L21.9643 30.0349C20.9551 31.0607 19.3043 31.0747 18.2783 30.0658L9.56239 21.4753L9.56405 21.4772Z" fill="#83DF79"/>
</svg>
