<svg width="21" height="20" viewBox="0 0 21 20" fill="none" xmlns="http://www.w3.org/2000/svg">
<path fill-rule="evenodd" clip-rule="evenodd" d="M20.2441 18.5366H0.73171C0.327798 18.5366 0 18.8644 0 19.2683C0 19.6722 0.327798 20 0.73171 20H20.2441C20.648 20 20.9758 19.6722 20.9758 19.2683C20.9758 18.8644 20.648 18.5366 20.2441 18.5366Z" fill="white"/>
<path fill-rule="evenodd" clip-rule="evenodd" d="M16.5196 6.5714e-05H4.45722C3.81143 6.5714e-05 3.22017 0.364942 2.93041 0.943428C2.34111 2.12299 0.954797 4.89562 0.496328 5.93578C0.25836 6.42364 0.249542 6.99529 0.471993 7.49474C0.476893 7.50552 0.481792 7.51613 0.487672 7.52691C1.01066 8.56013 2.08175 9.2683 3.31797 9.2683C4.27115 9.2683 5.12684 8.84692 5.70827 8.17956C6.28971 8.84692 7.14539 9.2683 8.09858 9.2683C9.05177 9.2683 9.90745 8.84692 10.4889 8.17956C11.0703 8.84692 11.926 9.2683 12.8792 9.2683C13.8324 9.2683 14.6881 8.84692 15.2695 8.17956C15.8509 8.84692 16.7066 9.2683 17.6598 9.2683C18.8774 9.2683 19.9389 8.57857 20.5194 7.58829C20.5331 7.56592 20.5447 7.54142 20.5564 7.51708C20.7887 6.99607 20.775 6.39912 20.5194 5.88888L18.0472 0.943362C17.7575 0.364852 17.1663 0 16.5204 0L16.5196 6.5714e-05Z" fill="white"/>
<path fill-rule="evenodd" clip-rule="evenodd" d="M1.95139 10.0136V19.2683C1.95139 19.6722 2.27919 20 2.6831 20H18.2928C18.6967 20 19.0245 19.6722 19.0245 19.2683V10.0136C18.5952 10.1629 18.1356 10.2439 17.6586 10.2439C16.7688 10.2439 15.9434 9.96297 15.2683 9.48492C14.5921 9.963 13.7678 10.2439 12.8779 10.2439C11.9881 10.2439 11.1628 9.96297 10.4876 9.48492C9.81246 9.963 8.98714 10.2439 8.09733 10.2439C7.20753 10.2439 6.38321 9.96297 5.70703 9.48492C5.03185 9.963 4.20652 10.2439 3.31672 10.2439C2.83864 10.2439 2.37921 10.1629 1.95081 10.0136H1.95139ZM8.53678 12.9267C8.27823 12.9267 8.02947 13.0291 7.84705 13.2126C7.66363 13.395 7.56123 13.6437 7.56123 13.9023V19.756H13.4149V13.9023C13.4149 13.6437 13.3125 13.395 13.1291 13.2126C12.9466 13.0291 12.6979 12.9267 12.4393 12.9267H8.53695H8.53678Z" fill="white"/>
</svg>
